<svg width="552" height="66" viewBox="0 0 552 66" fill="none" xmlns="http://www.w3.org/2000/svg">
<g clip-path="url(#clip0_1_3)">
<path d="M274.2 49.94H349.31L349.3 65.72L258.3 65.73V0.0100098L349.3 0.0200098L349.31 15.79L274.11 15.8L274.19 24.98H341.38L341.41 40.75L274.21 40.76L274.2 49.94Z" fill="white"/>
<path d="M450.1 65.72H376.28C367.05 65.24 359.17 57.84 359.16 48.56L359.14 17.36C359.14 7.99999 367.06 0.469989 376.35 0.019989H450.09V15.79H379.36C376.98 15.75 374.87 17.42 374.87 19.83V46.09C374.88 48.41 377.07 50.05 379.32 49.95H450.06L450.1 65.72Z" fill="white"/>
<path d="M551.52 0V65.65L535.71 65.74L535.7 40.75L476.3 40.76V65.73H460.49V0.02L476.29 0L476.3 24.97L535.71 24.98V0.03L551.52 0Z" fill="white"/>
<path d="M90.84 45.7C91.32 55.89 84.44 64.84 73.97 65.72H0L15.93 50.01L71.45 49.96C73.89 49.96 75.03 47.07 75.04 45.51C75.04 43.16 73.72 41.38 71.21 40.85L25.23 40.81L40.79 25.17L71.31 25.07C73.59 25.07 74.88 22.53 75.02 20.95C75.19 19 73.99 16.07 71.5 16.06L50.25 15.91L65.99 0.230011L75.43 0.330011C85.37 2.18001 91.46 10.82 90.83 20.75C90.55 25.11 90.56 29.31 87.46 32.94C90.52 36.66 90.62 41.01 90.84 45.7Z" fill="white"/>
<path d="M250.32 15.8L212.73 15.79L212.72 65.66L196.9 65.74L196.91 15.79L159.32 15.8L159.31 0.0100098H250.31L250.32 15.8Z" fill="white"/>
<path d="M153.57 41.06H100.39V25.36H153.56L153.57 41.06Z" fill="white"/>
</g>
<defs>
<clipPath id="clip0_1_3">
<rect width="551.52" height="65.74" fill="white"/>
</clipPath>
</defs>
</svg>
